<svg id="Layer_5" enable-background="new 0 0 62 62" height="512" viewBox="0 0 62 62" width="512" xmlns="http://www.w3.org/2000/svg" xmlns:xlink="http://www.w3.org/1999/xlink"><linearGradient id="SVGID_1_" gradientUnits="userSpaceOnUse" x1="31" x2="31" y1="62" y2="0"><stop offset="0" stop-color="#9f2fff"/><stop offset="1" stop-color="#0bb1d3"/></linearGradient><path d="m7 28h3v30c0 2.206 1.794 4 4 4h18c2.206 0 4-1.794 4-4v-11.537c.639-.429 1.234-.932 1.752-1.522l.25-.284-.003-2.657h-3.999c-1.654 0-3-1.346-3-3s1.346-3 3-3h4v-2.659l-.249-.283c-.518-.589-1.112-1.092-1.75-1.521v-3.537h6c5.514 0 10-4.486 10-10s-4.487-10-10.001-10c-.436 0-.876.03-1.317.089-2.295-4.941-7.187-8.089-12.683-8.089-5.922 0-11.194 3.76-13.173 9.261-.588-.16-1.198-.261-1.827-.261-3.157 0-5.865 2.075-6.722 5.037-3.522.362-6.278 3.347-6.278 6.963 0 3.86 3.14 7 7 7zm27-4h-22v-4c0-1.103.897-2 2-2h18c1.103 0 2 .897 2 2zm-2 36h-18c-1.103 0-2-.897-2-2v-4h22v4c0 1.103-.897 2-2 2zm2-8h-22v-9h10.94c1.514 3.059 4.607 5 8.06 5 1.034 0 2.045-.186 3-.525zm0-18c-2.757 0-5 2.243-5 5s2.243 5 5 5h1.89c-1.303 1.277-3.057 2-4.89 2-2.863 0-5.409-1.717-6.486-4.375l-.253-.625h-12.261v-4h12.261l.253-.625c1.077-2.658 3.623-4.375 6.486-4.375 1.833 0 3.587.723 4.89 2zm-3-4c-3.453 0-6.546 1.941-8.06 5h-10.94v-9h22v4.526c-.955-.34-1.966-.526-3-.526zm-23.935-14 .862.015.143-.85c.404-2.413 2.477-4.165 4.93-4.165 2.116 0 4.011 1.339 4.716 3.333l1.886-.666c-.544-1.539-1.604-2.783-2.933-3.604 1.66-4.782 6.21-8.063 11.331-8.063 4.944 0 9.32 2.975 11.148 7.58l.313.789.83-.181c.571-.125 1.146-.188 1.709-.188 4.411 0 8 3.589 8 8s-3.589 8-8 8h-6v-6c0-2.206-1.794-4-4-4h-18c-2.206 0-4 1.794-4 4v6h-3c-2.757 0-5-2.243-5-5s2.243-5 5.065-5zm14.935 4h4v2h-4zm-2 36h6v2h-6zm40.229-20.838c-.154-.372-.141-.789.036-1.142l.438-.874-3.849-3.849-.873.438c-.354.177-.771.189-1.164.026-.375-.153-.661-.458-.787-.834l-.309-.927h-5.441l-.309.927c-.125.376-.412.681-.809.844-.373.153-.789.141-1.142-.036l-.874-.438-3.849 3.849.438.873c.177.354.19.77.026 1.164-.153.375-.458.661-.834.787l-.927.309v5.441l.927.309c.376.125.681.412.844.809.154.372.141.789-.036 1.142l-.438.874 3.849 3.849.873-.438c.354-.178.771-.19 1.164-.026.375.153.661.458.787.834l.309.927h5.441l.309-.927c.125-.376.412-.681.809-.844.371-.155.788-.142 1.142.036l.874.438 3.849-3.849-.438-.873c-.177-.354-.19-.77-.027-1.164.154-.375.458-.662.835-.787l.927-.309v-5.441l-.927-.309c-.377-.126-.681-.413-.844-.809zm-.229 5.153c-.723.362-1.299.98-1.619 1.759-.314.759-.342 1.596-.087 2.36l-1.86 1.86c-.764-.253-1.603-.225-2.377.094-.764.313-1.379.888-1.742 1.612h-2.63c-.363-.724-.98-1.299-1.759-1.619-.759-.315-1.598-.342-2.36-.087l-1.86-1.86c.254-.764.226-1.604-.094-2.378-.314-.764-.889-1.379-1.612-1.741v-2.63c.724-.363 1.299-.98 1.619-1.759.314-.759.342-1.596.087-2.36l1.86-1.86c.765.254 1.604.226 2.377-.094.764-.313 1.379-.888 1.742-1.612h2.63c.363.724.98 1.299 1.759 1.619.758.314 1.597.341 2.36.087l1.86 1.86c-.254.764-.226 1.604.094 2.377.313.764.888 1.379 1.612 1.742zm-9-8.315c-3.86 0-7 3.14-7 7s3.14 7 7 7 7-3.14 7-7-3.14-7-7-7zm0 12c-2.757 0-5-2.243-5-5s2.243-5 5-5 5 2.243 5 5-2.243 5-5 5zm0-8c-1.654 0-3 1.346-3 3s1.346 3 3 3 3-1.346 3-3-1.346-3-3-3zm0 4c-.551 0-1-.449-1-1s.449-1 1-1 1 .449 1 1-.449 1-1 1zm-26.555-33.169-.89-1.791c1.389-.69 2.885-1.04 4.445-1.04 4.231 0 8.021 2.679 9.431 6.667l-1.886.666c-1.128-3.19-4.159-5.333-7.545-5.333-1.249 0-2.445.28-3.555.831zm-3.098 2.725-1.662-1.112c.468-.699 1.022-1.337 1.649-1.897l1.333 1.491c-.502.448-.946.959-1.32 1.518zm20.653 14.444v-2c2.206 0 4-1.794 4-4s-1.794-4-4-4v-2c3.309 0 6 2.691 6 6s-2.691 6-6 6zm-34 12h-2v2h-2v-2h-2v-2h2v-2h2v2h2zm0 8h-2v2h-2v-2h-2v-2h2v-2h2v2h2zm-4 10v-2h-2v-2h2v-2h2v2h2v2h-2v2zm52-46h-2v-2h2v-2h2v2h2v2h-2v2h-2zm0 8h-2v-2h2v-2h2v2h2v2h-2v2h-2zm0 8h-2v-2h2v-2h2v2h2v2h-2v2h-2z" fill="url(#SVGID_1_)"/></svg>