<svg id="Layer_1" height="512" viewBox="0 0 512 512" width="512" xmlns="http://www.w3.org/2000/svg" xmlns:xlink="http://www.w3.org/1999/xlink" data-name="Layer 1"><linearGradient id="linear-gradient" gradientUnits="userSpaceOnUse" x1="75.374" x2="75.374" y1="477" y2="72.598"><stop offset=".322" stop-color="#a163f5"/><stop offset=".466" stop-color="#b074ee"/><stop offset=".752" stop-color="#d8a1dd"/><stop offset=".898" stop-color="#efbad3"/></linearGradient><linearGradient id="linear-gradient-2" x1="95.078" x2="95.078" xlink:href="#linear-gradient" y1="477" y2="72.6"/><linearGradient id="linear-gradient-3" x1="114.706" x2="114.706" xlink:href="#linear-gradient" y1="477" y2="72.598"/><linearGradient id="linear-gradient-4" x1="75.374" x2="75.374" xlink:href="#linear-gradient" y1="477" y2="72.601"/><linearGradient id="linear-gradient-5" x1="114.706" x2="114.706" xlink:href="#linear-gradient" y1="477" y2="72.601"/><linearGradient id="linear-gradient-6" x1="139.316" x2="139.316" xlink:href="#linear-gradient" y1="477" y2="72.599"/><linearGradient id="linear-gradient-7" x1="159.019" x2="159.019" xlink:href="#linear-gradient" y1="477" y2="72.599"/><linearGradient id="linear-gradient-8" x1="178.648" x2="178.648" xlink:href="#linear-gradient" y1="477" y2="72.599"/><linearGradient id="linear-gradient-9" x1="139.316" x2="139.316" xlink:href="#linear-gradient" y1="477" y2="72.6"/><linearGradient id="linear-gradient-10" x1="178.648" x2="178.648" xlink:href="#linear-gradient" y1="477" y2="72.6"/><linearGradient id="linear-gradient-11" x1="450.962" x2="450.962" xlink:href="#linear-gradient" y1="477" y2="72.598"/><linearGradient id="linear-gradient-12" x1="431.258" x2="431.258" xlink:href="#linear-gradient" y1="477" y2="72.6"/><linearGradient id="linear-gradient-13" x1="411.63" x2="411.63" xlink:href="#linear-gradient" y1="477" y2="72.598"/><linearGradient id="linear-gradient-14" x1="450.962" x2="450.962" xlink:href="#linear-gradient" y1="477" y2="72.601"/><linearGradient id="linear-gradient-15" x1="411.63" x2="411.63" xlink:href="#linear-gradient" y1="477" y2="72.601"/><linearGradient id="linear-gradient-16" x1="387.02" x2="387.02" xlink:href="#linear-gradient" y1="477" y2="72.599"/><linearGradient id="linear-gradient-17" x1="367.317" x2="367.317" xlink:href="#linear-gradient" y1="477" y2="72.599"/><linearGradient id="linear-gradient-18" x1="347.688" x2="347.688" xlink:href="#linear-gradient" y1="477" y2="72.599"/><linearGradient id="linear-gradient-19" x1="387.02" x2="387.02" xlink:href="#linear-gradient" y1="477" y2="72.6"/><linearGradient id="linear-gradient-20" x1="347.688" x2="347.688" xlink:href="#linear-gradient" y1="477" y2="72.6"/><linearGradient id="linear-gradient-21" x1="156.974" x2="156.974" xlink:href="#linear-gradient" y1="477" y2="72.599"/><linearGradient id="linear-gradient-22" x1="156.974" x2="156.974" xlink:href="#linear-gradient" y1="477" y2="72.6"/><linearGradient id="linear-gradient-23" x1="117.004" x2="117.004" xlink:href="#linear-gradient" y1="477" y2="72.599"/><linearGradient id="linear-gradient-24" x1="117.004" x2="117.004" xlink:href="#linear-gradient" y1="476.999" y2="72.601"/><linearGradient id="linear-gradient-25" x1="366.817" x2="366.817" xlink:href="#linear-gradient" y1="477" y2="72.599"/><linearGradient id="linear-gradient-26" x1="366.817" x2="366.817" xlink:href="#linear-gradient" y1="477" y2="72.6"/><linearGradient id="linear-gradient-27" x1="406.788" x2="406.788" xlink:href="#linear-gradient" y1="477" y2="72.599"/><linearGradient id="linear-gradient-28" x1="406.788" x2="406.788" xlink:href="#linear-gradient" y1="476.999" y2="72.601"/><linearGradient id="linear-gradient-29" x1="56.48" x2="56.48" xlink:href="#linear-gradient" y1="477" y2="72.598"/><linearGradient id="linear-gradient-30" x1="50.389" x2="50.389" xlink:href="#linear-gradient" y1="477" y2="72.599"/><linearGradient id="linear-gradient-31" x1="67.059" x2="67.059" xlink:href="#linear-gradient" y1="477" y2="72.6"/><linearGradient id="linear-gradient-32" x1="39.811" x2="39.811" xlink:href="#linear-gradient" y1="476.999" y2="72.6"/><linearGradient id="linear-gradient-33" x1="454.214" x2="454.214" xlink:href="#linear-gradient" y1="476.999" y2="72.599"/><linearGradient id="linear-gradient-34" x1="465.733" x2="465.733" xlink:href="#linear-gradient" y1="476.999" y2="72.6"/><linearGradient id="linear-gradient-35" x1="472.498" x2="472.498" xlink:href="#linear-gradient" y1="477" y2="72.599"/><linearGradient id="linear-gradient-36" x1="447.45" x2="447.45" xlink:href="#linear-gradient" y1="476.999" y2="72.599"/><linearGradient id="linear-gradient-37" x1="89.189" x2="89.189" xlink:href="#linear-gradient" y1="477.002" y2="72.6"/><linearGradient id="linear-gradient-38" x1="443.925" x2="443.925" xlink:href="#linear-gradient" y1="477.001" y2="72.599"/><linearGradient id="linear-gradient-39" x1="263.829" x2="263.829" xlink:href="#linear-gradient" y1="477" y2="72.599"/><linearGradient id="linear-gradient-40" x1="264.452" x2="264.452" xlink:href="#linear-gradient" y1="477" y2="72.599"/><linearGradient id="linear-gradient-41" x1="264.455" x2="264.455" xlink:href="#linear-gradient" y1="477" y2="72.599"/><linearGradient id="linear-gradient-42" x1="248.664" x2="248.664" xlink:href="#linear-gradient" y1="477" y2="72.599"/><linearGradient id="linear-gradient-43" x1="241.431" x2="241.431" xlink:href="#linear-gradient" y1="477" y2="72.599"/><linearGradient id="linear-gradient-44" x1="198.742" x2="198.742" xlink:href="#linear-gradient" y1="477" y2="72.599"/><linearGradient id="linear-gradient-45" x1="325.648" x2="325.648" xlink:href="#linear-gradient" y1="477" y2="72.599"/><linearGradient id="linear-gradient-46" x1="246.372" x2="246.372" xlink:href="#linear-gradient" y1="477" y2="72.599"/><linearGradient id="linear-gradient-47" x1="246.372" x2="246.372" xlink:href="#linear-gradient" y1="477" y2="72.594"/><linearGradient id="linear-gradient-48" x1="279.348" x2="279.348" xlink:href="#linear-gradient" y1="477" y2="72.599"/><linearGradient id="linear-gradient-50" x1="216.395" x2="216.395" xlink:href="#linear-gradient" y1="477" y2="72.599"/><linearGradient id="linear-gradient-51" x1="306.327" x2="306.327" xlink:href="#linear-gradient" y1="477" y2="72.599"/><path d="m75.374 461.3a6 6 0 0 0 -6 6v5.682a6 6 0 0 0 12 0v-5.682a6 6 0 0 0 -6-6z" fill="url(#linear-gradient)"/><path d="m99.8 350.619a6 6 0 0 0 -9.451 0l-35.479 45.343a6 6 0 0 0 4.726 9.7h.03l9.889-.05v46.678a6 6 0 0 0 5.987 6l39 .08h.013a6 6 0 0 0 6-6v-46.711h10.05a6 6 0 0 0 4.725-9.7zm14.707 43.04a6 6 0 0 0 -6 6v46.695l-27-.054v-46.721a6 6 0 0 0 -6-6h-.031l-3.526.018 23.119-29.544 23.169 29.606z" fill="url(#linear-gradient-2)"/><path d="m114.706 461.3a6 6 0 0 0 -6 6v5.682a6 6 0 0 0 12 0v-5.682a6 6 0 0 0 -6-6z" fill="url(#linear-gradient-3)"/><path d="m75.374 481.081a6 6 0 0 0 -6 6v5.682a6 6 0 0 0 12 0v-5.682a6 6 0 0 0 -6-6z" fill="url(#linear-gradient-4)"/><path d="m114.706 481.081a6 6 0 0 0 -6 6v5.682a6 6 0 0 0 12 0v-5.682a6 6 0 0 0 -6-6z" fill="url(#linear-gradient-5)"/><path d="m139.316 353.074a6 6 0 0 0 -6 6v5.682a6 6 0 0 0 12 0v-5.682a6 6 0 0 0 -6-6z" fill="url(#linear-gradient-6)"/><path d="m154.294 242.4-35.483 45.34a6 6 0 0 0 4.726 9.7h.03l9.889-.049v46.677a6 6 0 0 0 5.987 6l39 .08h.012a6 6 0 0 0 6-6v-46.71h10.045a6 6 0 0 0 4.726-9.7l-35.481-45.338a6 6 0 0 0 -9.451 0zm27.894 43.04h-3.737a6 6 0 0 0 -6 6v46.7l-27-.055v-46.727a6 6 0 0 0 -6-6h-.03l-3.527.018 23.121-29.544z" fill="url(#linear-gradient-7)"/><path d="m184.648 359.074a6 6 0 0 0 -12 0v5.682a6 6 0 0 0 12 0z" fill="url(#linear-gradient-8)"/><path d="m139.316 372.859a6 6 0 0 0 -6 6v5.682a6 6 0 0 0 12 0v-5.682a6 6 0 0 0 -6-6z" fill="url(#linear-gradient-9)"/><path d="m178.648 372.859a6 6 0 0 0 -6 6v5.682a6 6 0 0 0 12 0v-5.682a6 6 0 0 0 -6-6z" fill="url(#linear-gradient-10)"/><path d="m450.962 461.3a6 6 0 0 0 -6 6v5.682a6 6 0 0 0 12 0v-5.682a6 6 0 0 0 -6-6z" fill="url(#linear-gradient-11)"/><path d="m435.984 350.619a6 6 0 0 0 -9.451 0l-35.482 45.343a6 6 0 0 0 4.725 9.7h10.05v46.708a6 6 0 0 0 6 6h.013l39-.08a6 6 0 0 0 5.987-6v-46.681l9.889.05h.03a6 6 0 0 0 4.726-9.7zm14.868 42.96h-.031a6 6 0 0 0 -6 6v46.721l-27 .054v-46.695a6 6 0 0 0 -6-6h-3.731l23.169-29.606 23.119 29.547z" fill="url(#linear-gradient-12)"/><path d="m411.63 461.3a6 6 0 0 0 -6 6v5.682a6 6 0 0 0 12 0v-5.682a6 6 0 0 0 -6-6z" fill="url(#linear-gradient-13)"/><path d="m450.962 481.081a6 6 0 0 0 -6 6v5.682a6 6 0 0 0 12 0v-5.682a6 6 0 0 0 -6-6z" fill="url(#linear-gradient-14)"/><path d="m411.63 481.081a6 6 0 0 0 -6 6v5.682a6 6 0 1 0 12 0v-5.682a6 6 0 0 0 -6-6z" fill="url(#linear-gradient-15)"/><path d="m387.02 353.074a6 6 0 0 0 -6 6v5.682a6 6 0 0 0 12 0v-5.682a6 6 0 0 0 -6-6z" fill="url(#linear-gradient-16)"/><path d="m402.8 297.438a6 6 0 0 0 4.725-9.7l-35.483-45.338a6 6 0 0 0 -9.451 0l-35.482 45.34a6 6 0 0 0 4.726 9.7h10.05v46.708a6 6 0 0 0 6 6h.012l39-.08a6 6 0 0 0 5.987-6v-46.679l9.889.049zm-15.889-12.08h-.03a6 6 0 0 0 -6 6v46.721l-27 .055v-46.7a6 6 0 0 0 -6-6h-3.737l23.168-29.606 23.12 29.544z" fill="url(#linear-gradient-17)"/><path d="m353.688 359.074a6 6 0 1 0 -12 0v5.682a6 6 0 0 0 12 0z" fill="url(#linear-gradient-18)"/><path d="m393.02 384.541v-5.682a6 6 0 1 0 -12 0v5.682a6 6 0 0 0 12 0z" fill="url(#linear-gradient-19)"/><path d="m347.688 372.859a6 6 0 0 0 -6 6v5.682a6 6 0 1 0 12 0v-5.682a6 6 0 0 0 -6-6z" fill="url(#linear-gradient-20)"/><path d="m156.974 166.693a6 6 0 0 0 6-6v-55.06a6 6 0 1 0 -12 0v55.06a6 6 0 0 0 6 6z" fill="url(#linear-gradient-21)"/><path d="m156.974 91.555a6 6 0 0 0 6-6v-8.439a6 6 0 1 0 -12 0v8.439a6 6 0 0 0 6 6z" fill="url(#linear-gradient-22)"/><path d="m117 216.683a6 6 0 0 0 6-6v-55.061a6 6 0 0 0 -12 0v55.061a6 6 0 0 0 6 6z" fill="url(#linear-gradient-23)"/><path d="m117 141.544a6 6 0 0 0 6-6v-8.439a6 6 0 0 0 -12 0v8.439a6 6 0 0 0 6 6z" fill="url(#linear-gradient-24)"/><path d="m366.817 166.693a6 6 0 0 0 6-6v-55.06a6 6 0 1 0 -12 0v55.06a6 6 0 0 0 6 6z" fill="url(#linear-gradient-25)"/><path d="m366.817 91.555a6 6 0 0 0 6-6v-8.439a6 6 0 1 0 -12 0v8.439a6 6 0 0 0 6 6z" fill="url(#linear-gradient-26)"/><path d="m406.788 216.683a6 6 0 0 0 6-6v-55.061a6 6 0 0 0 -12 0v55.061a6 6 0 0 0 6 6z" fill="url(#linear-gradient-27)"/><path d="m406.788 141.544a6 6 0 0 0 6-6v-8.439a6 6 0 0 0 -12 0v8.439a6 6 0 0 0 6 6z" fill="url(#linear-gradient-28)"/><path d="m54.275 265.8a6 6 0 0 0 7.2-4.5l1.708-7.392a6 6 0 0 0 -11.692-2.7l-1.711 7.392a6 6 0 0 0 4.495 7.2z" fill="url(#linear-gradient-29)"/><path d="m55.381 287.665 1.708-7.392a6 6 0 0 0 -11.692-2.7l-1.707 7.392a6 6 0 1 0 11.691 2.7z" fill="url(#linear-gradient-30)"/><path d="m57.374 270.29a6 6 0 0 0 4.6 7.133l7.64 1.652a6 6 0 1 0 2.537-11.728l-7.64-1.653a6 6 0 0 0 -7.137 4.596z" fill="url(#linear-gradient-31)"/><path d="m49.5 268.587a6 6 0 0 0 -4.6-7.133l-7.64-1.652a6 6 0 1 0 -2.537 11.728l7.64 1.653a6.063 6.063 0 0 0 1.275.136 6 6 0 0 0 5.862-4.732z" fill="url(#linear-gradient-32)"/><path d="m450.4 40.028a6 6 0 1 0 10.858-5.11l-3.231-6.864a6 6 0 1 0 -10.857 5.11z" fill="url(#linear-gradient-33)"/><path d="m469.547 52.532a6 6 0 1 0 -10.857 5.11l3.23 6.864a6 6 0 1 0 10.857-5.11z" fill="url(#linear-gradient-34)"/><path d="m473.375 33.052-7.023 3.433a6 6 0 1 0 5.269 10.781l7.024-3.433a6 6 0 0 0 -5.27-10.781z" fill="url(#linear-gradient-35)"/><path d="m443.942 60.119a5.965 5.965 0 0 0 2.63-.611l7.025-3.433a6 6 0 1 0 -5.27-10.781l-7.027 3.433a6 6 0 0 0 2.639 11.392z" fill="url(#linear-gradient-36)"/><path d="m89.189 68.755a7.859 7.859 0 1 0 -7.859-7.855 7.868 7.868 0 0 0 7.859 7.855z" fill="url(#linear-gradient-37)"/><path d="m443.925 268.712a7.859 7.859 0 1 0 -7.859-7.859 7.868 7.868 0 0 0 7.859 7.859z" fill="url(#linear-gradient-38)"/><path d="m179.16 236.194a8.281 8.281 0 0 0 13.889 3.744c5.319-5.346 20.081-16.389 34.963-22.4l2.446 10.729a16.12 16.12 0 0 0 15.795 12.6h35.947a16.119 16.119 0 0 0 15.8-12.598l2.826-12.392a108.031 108.031 0 0 1 28.961 15.084 12.98 12.98 0 0 0 20.5-7.292c3.352-13.972.72-28.977-7.41-42.249a61.158 61.158 0 0 0 -28.583-24.61l1.929-8.456c.773-2.509 5.453-19.059 2.611-43.536-2.757-23.746-13.445-59.948-48.7-97.559a7.146 7.146 0 0 0 -10.424 0c-35.238 37.587-46.306 73.758-49.385 97.483-3.2 24.659 1.238 41.269 1.9 43.566l2.253 9.88c-28.126 11.58-44.359 43.212-36.572 73.178zm159.455-15.323a.933.933 0 0 1 -.626.7.922.922 0 0 1 -.924-.147c-9.019-6.883-21.251-13.162-33.559-17.314l8.075-35.412c19.562 8.964 31.91 31.846 27.034 52.173zm-73.7-201.538a188.618 188.618 0 0 1 24.08 33.411 32.353 32.353 0 0 1 -24.531 10.768 31.766 31.766 0 0 1 -23.769-10.741 192.96 192.96 0 0 1 24.218-33.438zm-42.605 86.282a142.942 142.942 0 0 1 12.59-41.656 43.757 43.757 0 0 0 29.565 11.553 44.715 44.715 0 0 0 30.273-11.512 139.19 139.19 0 0 1 12.094 41.541c2.868 23.615-2.061 39.228-2.106 39.366q-.089.27-.152.546l-18.274 80.147a4.182 4.182 0 0 1 -4.1 3.27h-35.947a4.182 4.182 0 0 1 -4.1-3.27l-18.273-80.151c-.03-.135-.071-.286-.111-.42-.047-.155-4.654-15.778-1.461-39.414zm-27.81 85.777a50.113 50.113 0 0 1 22.689-21.3l8.125 35.628c-13.645 5.205-27.594 14.421-36.075 21.5a50 50 0 0 1 5.261-35.828z" fill="url(#linear-gradient-39)"/><path d="m288.38 248.33v-.005a6.969 6.969 0 0 0 -13.332.132c-.9 3.062-4.3 12.992-9.958 12.419-6.293-.65-9.3-8.906-10.3-12.419a6.97 6.97 0 0 0 -13.2-.637c-6.311 16.136-4.9 38.2 18 51.749a8.611 8.611 0 0 0 4.385 1.2 8.471 8.471 0 0 0 4.377-1.215c28.187-17.005 22.456-43.507 20.028-51.224zm-24.439 39.817c-10.336-6.788-13.4-15.29-13.615-22.628a20.594 20.594 0 0 0 13.53 7.293 17.11 17.11 0 0 0 14.334-5.419c-1.112 6.86-4.847 14.482-14.249 20.754z" fill="url(#linear-gradient-40)"/><path d="m264.454 146.453a30.823 30.823 0 1 0 -30.808-30.823 30.852 30.852 0 0 0 30.808 30.823zm0-49.645a18.823 18.823 0 1 1 -18.808 18.822 18.838 18.838 0 0 1 18.808-18.822z" fill="url(#linear-gradient-41)"/><path d="m253.605 197.905a6 6 0 1 0 -11.714 2.6l1.831 8.257a6 6 0 1 0 11.714-2.6z" fill="url(#linear-gradient-42)"/><path d="m238.729 186.246a6 6 0 0 0 11.714-2.6l-6.31-28.45a6 6 0 0 0 -11.715 2.6z" fill="url(#linear-gradient-43)"/><path d="m210.611 432.478a27.082 27.082 0 0 0 -26.511 21.744 26.434 26.434 0 0 0 2.162 52.778 6 6 0 0 0 0-12 14.434 14.434 0 1 1 2.377-28.647 6 6 0 0 0 6.979-6.188c-.007-.157-.017-.313-.027-.47l-.013-.173a15.034 15.034 0 1 1 30.067 0 6 6 0 0 0 12 0 27.069 27.069 0 0 0 -27.034-27.044z" fill="url(#linear-gradient-44)"/><path d="m340.29 454.222a27.034 27.034 0 0 0 -53.545 5.3 6 6 0 1 0 12 0 15.033 15.033 0 0 1 30.066-.035l-.011.193c-.012.168-.022.335-.029.5a6 6 0 0 0 6.98 6.169 14.422 14.422 0 1 1 2.377 28.651 6 6 0 1 0 0 12 26.434 26.434 0 0 0 2.162-52.778z" fill="url(#linear-gradient-45)"/><path d="m246.372 306.943a6 6 0 0 0 -6 6v13.367a6 6 0 0 0 12 0v-13.367a6 6 0 0 0 -6-6z" fill="url(#linear-gradient-46)"/><path d="m246.372 338.146a6 6 0 0 0 -6 6v89.1a6 6 0 0 0 12 0v-89.1a6 6 0 0 0 -6-6z" fill="url(#linear-gradient-47)"/><path d="m279.348 410.2a6 6 0 0 0 -6 6v17.047a6 6 0 0 0 12 0v-17.047a6 6 0 0 0 -6-6z" fill="url(#linear-gradient-48)"/><path d="m279.348 306.943a6 6 0 0 0 -6 6v84.631a6 6 0 0 0 12 0v-84.631a6 6 0 0 0 -6-6z" fill="url(#linear-gradient-48)"/><path d="m210.4 342.936v71.645a6 6 0 0 0 12 0v-71.645a6 6 0 0 0 -12 0z" fill="url(#linear-gradient-50)"/><path d="m300.327 342.936v71.645a6 6 0 0 0 12 0v-71.645a6 6 0 1 0 -12 0z" fill="url(#linear-gradient-51)"/></svg>